<?xml version="1.0" encoding="UTF-8"?>
<svg version="1.1" xmlns="http://www.w3.org/2000/svg" width="172" height="187">
<path d="M0 0 C4.39893588 3.72169858 7.68137748 7.60726475 10.77734375 12.453125 C13.82770191 17.14120726 17.04828469 20.55856457 21.5 23.9375 C37.90159689 37.17655494 48.28202178 57.04392417 51.3125 77.8125 C53.23180211 103.35749711 47.41423649 126.56424909 30.61328125 146.33618164 C16.35408639 162.43140106 -3.97953611 173.34097857 -25.52441406 175.03564453 C-51.69142938 176.38764937 -73.78515839 169.40997685 -93.6953125 152.21484375 C-110.25311718 136.55641843 -119.68083231 115.00877044 -120.8125 92.3046875 C-121.38758833 67.64777545 -112.10745062 46.50561324 -95.65234375 28.59765625 C-92.65623104 25.49763212 -89.78408856 22.78693035 -86.125 20.5 C-81.99706966 17.73559416 -80.01869918 13.76699312 -77.484375 9.58984375 C-69.8151949 -2.26404114 -57.25980994 -8.60315757 -43.875 -11.875 C-27.38627014 -13.49154214 -13.17237329 -10.16154511 0 0 Z M-44.6875 79.8125 C-44.0275 81.1325 -43.3675 82.4525 -42.6875 83.8125 C-39.89576945 83.83940104 -37.10429652 83.85929053 -34.3125 83.875 C-33.12140625 83.88756836 -33.12140625 83.88756836 -31.90625 83.90039062 C-27.66357778 84.04290151 -27.66357778 84.04290151 -23.6875 82.8125 C-23.6875 82.1525 -23.6875 81.4925 -23.6875 80.8125 C-30.65529403 79.48530114 -37.61738911 79.72424619 -44.6875 79.8125 Z M-47.6875 132.8125 C-48.6775 134.2975 -48.6775 134.2975 -49.6875 135.8125 C-48.0375 135.4825 -46.3875 135.1525 -44.6875 134.8125 C-44.6875 134.1525 -44.6875 133.4925 -44.6875 132.8125 C-45.6775 132.8125 -46.6675 132.8125 -47.6875 132.8125 Z " fill="#FC5D5B" transform="translate(120.6875,12.1875)"/>
<path d="M0 0 C7.06132097 6.00262221 12.23079708 13.02964669 15.3125 21.8125 C15.56594681 22.46781204 15.81939362 23.12312408 16.08052063 23.79829407 C19.42275698 33.80606693 18.6868643 44.25443353 18.60546875 54.66796875 C18.5998651 56.78216754 18.59559864 58.89637025 18.59260559 61.01057434 C18.58121738 66.54256168 18.55180264 72.07430819 18.51849365 77.60620117 C18.48766221 83.26412703 18.47407244 88.92209226 18.45898438 94.58007812 C18.42692668 105.65765719 18.37580404 116.73505847 18.3125 127.8125 C14.58493228 126.35341007 11.10168442 124.68508435 7.5625 122.8125 C-0.4304526 118.79156546 -7.86108014 117.65311142 -16.6875 116.8125 C-17.36677363 112.31145456 -17.62090865 108.28873597 -16.6875 103.8125 C-14.18519659 101.20975509 -11.59130934 99.58017762 -8.51953125 97.6953125 C-1.4898788 93.02180563 1.7933505 84.61540409 4.3125 76.8125 C4.46203125 75.92175781 4.6115625 75.03101562 4.765625 74.11328125 C5.3125 71.8125 5.3125 71.8125 7.75 70.25 C8.595625 69.775625 9.44125 69.30125 10.3125 68.8125 C12.62090263 65.41686337 12.5809847 62.34216417 12.5625 58.3125 C12.56765625 57.1884375 12.5728125 56.064375 12.578125 54.90625 C12.31297677 51.818053 12.17138104 50.26260108 10.3125 47.8125 C7.53787784 46.08294923 7.53787784 46.08294923 4.25 44.5625 C-8.60972775 37.88451569 -16.89046481 28.02974023 -22.6875 14.8125 C-22.6875 13.8225 -22.6875 12.8325 -22.6875 11.8125 C-23.83378335 12.81198412 -24.97948853 13.81213131 -26.125 14.8125 C-26.86492187 15.45445313 -27.60484375 16.09640625 -28.3671875 16.7578125 C-29.83527138 18.05783291 -31.28147809 19.3833661 -32.6953125 20.7421875 C-41.22055103 28.81361105 -58.35560972 41.8125 -70.6875 41.8125 C-70.74260893 48.03904404 -70.7447997 54.26263158 -70.69970703 60.48925781 C-70.69163737 62.60350927 -70.69757966 64.71786555 -70.71826172 66.83203125 C-71.30977298 80.71973087 -71.30977298 80.71973087 -65.96875 93.05078125 C-63.00131659 95.9572763 -59.91759108 98.26571077 -56.1875 100.125 C-53.6328125 101.7421875 -53.6328125 101.7421875 -51.6875 103.8125 C-50.83934487 108.26269665 -51.0823176 112.34087448 -51.6875 116.8125 C-52.73550781 116.94527344 -53.78351563 117.07804688 -54.86328125 117.21484375 C-56.24220778 117.39307235 -57.62111293 117.57146641 -59 117.75 C-59.69029297 117.83701172 -60.38058594 117.92402344 -61.09179688 118.01367188 C-64.08892288 118.40460135 -66.81200119 118.8540004 -69.6875 119.8125 C-69.70208252 120.93221191 -69.71666504 122.05192383 -69.73168945 123.20556641 C-69.78984886 127.37678274 -69.86708023 131.54746919 -69.94995117 135.71826172 C-69.98311773 137.52025729 -70.01117525 139.32235467 -70.03393555 141.12451172 C-70.06763432 143.72146823 -70.11995649 146.31749866 -70.17578125 148.9140625 C-70.18536613 150.11441635 -70.18536613 150.11441635 -70.19514465 151.33901978 C-70.32220864 156.21981544 -71.11149153 159.52415063 -73.6875 163.8125 C-83.58109059 163.8125 -92.16728507 153.24148124 -98.81640625 146.7265625 C-113.9527893 130.7904097 -121.13783213 108.52263045 -120.8359375 86.81640625 C-119.60924111 61.99194507 -109.14600486 41.77848916 -91.625 24.53125 C-89.85868222 22.96435519 -88.12118249 21.74761405 -86.125 20.5 C-81.99706966 17.73559416 -80.01869918 13.76699312 -77.484375 9.58984375 C-69.8151949 -2.26404114 -57.25980994 -8.60315757 -43.875 -11.875 C-27.38627014 -13.49154214 -13.17237329 -10.16154511 0 0 Z " fill="#724033" transform="translate(120.6875,12.1875)"/>
<path d="M0 0 C0.4846875 1.05058594 0.969375 2.10117187 1.46875 3.18359375 C8.52751044 18.12537846 16.39782636 26.30523792 31.0625 34.1875 C34.19356719 36.11943508 34.78428557 36.67098759 36 40 C36.30078125 43.05859375 36.30078125 43.05859375 36.3125 46.4375 C36.32925781 47.54996094 36.34601563 48.66242188 36.36328125 49.80859375 C35.9617659 53.3358845 35.13366545 55.18881993 33 58 C30.3125 59.3125 30.3125 59.3125 28 60 C27.95875 61.0725 27.9175 62.145 27.875 63.25 C26.7868504 71.87856652 21.62586008 81.31397823 15 87 C13.57034743 87.72404136 12.13251023 88.43211631 10.6875 89.125 C8.55903776 90.17862006 8.55903776 90.17862006 7 92 C6.00684764 96.34968868 5.8957808 100.55114273 6 105 C7.65 105 9.3 105 11 105 C12.80864343 108.84336729 13.43280993 111.75846268 13 116 C11.32749947 120.18125132 9.34607416 123.00007145 6 126 C4.35 125.34 2.7 124.68 1 124 C1 123.01 1 122.02 1 121 C0.01 121 -0.98 121 -2 121 C-2.495 122.485 -2.495 122.485 -3 124 C-6.1765511 125.05885037 -8.59988011 125.20049266 -11.9375 125.25 C-13.49791016 125.28867188 -13.49791016 125.28867188 -15.08984375 125.328125 C-18.35230504 124.96027702 -19.53637558 124.06856661 -22 122 C-25.00388632 122.26504879 -25.83304275 122.83304275 -28 125 C-29.875 124.9375 -29.875 124.9375 -32 124 C-36.3449211 119.15851649 -37.33131828 116.51592624 -37 110 C-36 107.0625 -36 107.0625 -35 105 C-33.02 105 -31.04 105 -29 105 C-29 100.71 -29 96.42 -29 92 C-30.65 91.34 -32.3 90.68 -34 90 C-36.28125 88.30078125 -36.28125 88.30078125 -38.5 86.3125 C-39.2321875 85.66925781 -39.964375 85.02601562 -40.71875 84.36328125 C-46.18125614 78.70434937 -48.56978877 75.22867565 -48.56648254 67.34596252 C-48.54067612 66.39777145 -48.51486969 65.44958038 -48.48828125 64.47265625 C-48.48120651 63.48373886 -48.47413177 62.49482147 -48.46684265 61.47593689 C-48.43899767 58.3373341 -48.37627677 55.20055768 -48.3125 52.0625 C-48.28740438 49.92645817 -48.26459343 47.7903882 -48.24414062 45.65429688 C-48.18920406 40.43558156 -48.10567833 35.21792129 -48 30 C-47.42883453 29.74831055 -46.85766907 29.49662109 -46.26919556 29.23730469 C-43.6487612 28.07946225 -41.03141581 26.91478955 -38.4140625 25.75 C-37.5156665 25.35425781 -36.61727051 24.95851563 -35.69165039 24.55078125 C-23.37284861 19.05322728 -13.16578979 11.52927188 -3.84375 1.734375 C-2 0 -2 0 0 0 Z M-22 68 C-21.34 69.32 -20.68 70.64 -20 72 C-17.20826945 72.02690104 -14.41679652 72.04679053 -11.625 72.0625 C-10.43390625 72.07506836 -10.43390625 72.07506836 -9.21875 72.08789062 C-4.97607778 72.23040151 -4.97607778 72.23040151 -1 71 C-1 70.34 -1 69.68 -1 69 C-7.96779403 67.67280114 -14.92988911 67.91174619 -22 68 Z " fill="#FBD8B2" transform="translate(98,24)"/>
<path d="M0 0 C1 2 1 2 0.45660686 3.72151089 C0.17046929 4.42003201 -0.11566828 5.11855314 -0.41047668 5.83824158 C-2.47607907 11.74656778 -2.44014785 17.3804051 -2.43237305 23.58813477 C-2.4425647 24.8183989 -2.45275635 26.04866302 -2.46325684 27.31620789 C-2.48813602 30.66280348 -2.50008698 34.00896136 -2.50611091 37.35561109 C-2.51554091 40.8630316 -2.54174774 44.37032749 -2.56611633 47.87767029 C-2.60965852 54.50721472 -2.63828064 61.13673478 -2.66143972 67.76637834 C-2.68855756 75.31911532 -2.73246478 82.87172616 -2.77772844 90.42437279 C-2.87039862 105.94951686 -2.94215967 121.47468472 -3 137 C-10.99704947 135.37773232 -17.23280589 126.44264351 -21.68041992 119.93188477 C-35.30514157 98.93800162 -39.98486167 75.53282706 -35 51 C-29.87538311 31.16545044 -17.93687971 10.76212783 0 0 Z " fill="#DD95FC" transform="translate(37,31)"/>
<path d="M0 0 C18.50311476 11.38653216 30.74415214 31.12507886 36 52 C40.59728867 76.86855483 35.01599674 99.88403379 21.67578125 120.9609375 C19.91912914 123.0984023 18.54843798 123.98950825 16 125 C15.62488281 124.48050781 15.24976563 123.96101563 14.86328125 123.42578125 C11.81749864 119.27523115 8.74544755 115.53142198 5 112 C2.88047256 109.88047256 3.84573523 105.08984717 3.84228516 102.15673828 C3.83720444 101.22816513 3.83212372 100.29959198 3.82688904 99.34288025 C3.81615667 97.31742432 3.80754783 95.29195633 3.80076981 93.26648331 C3.78900292 90.05404693 3.76955147 86.84174635 3.74765015 83.62936401 C3.68599041 74.49221369 3.63214547 65.35507361 3.59863281 56.21777344 C3.57759898 50.63384422 3.54221491 45.05015642 3.49787521 39.46636581 C3.48377146 37.34309625 3.47500557 35.2197839 3.47182083 33.09646988 C3.65033739 18.7976192 3.65033739 18.7976192 0.63949585 4.91671753 C0 3 0 3 0 0 Z " fill="#DD95FB" transform="translate(135,31)"/>
<path d="M0 0 C2.64 0.33 5.28 0.66 8 1 C8 27.4 8 53.8 8 81 C4.21771161 79.48708464 0.82955819 77.89394613 -2.75 76 C-10.7429526 71.97906546 -18.17358014 70.84061142 -27 70 C-27.67927363 65.49895456 -27.93340865 61.47623597 -27 57 C-24.49769659 54.39725509 -21.90380934 52.76767762 -18.83203125 50.8828125 C-11.8023788 46.20930563 -8.5191495 37.80290409 -6 30 C-5.85046875 29.10925781 -5.7009375 28.21851562 -5.546875 27.30078125 C-5 25 -5 25 -2.5625 23.4375 C-1.716875 22.963125 -0.87125 22.48875 0 22 C2.29410788 18.61756108 2.26855707 15.57546697 2.25 11.5625 C2.25515625 10.45003906 2.2603125 9.33757812 2.265625 8.19140625 C2.00441051 5.052991 1.33378454 2.83164575 0 0 Z " fill="#593029" transform="translate(131,59)"/>
<path d="M0 0 C1.65 0.33 3.3 0.66 5 1 C6.61021749 1.08738637 8.2233521 1.13056432 9.8359375 1.1328125 C10.73570313 1.13410156 11.63546875 1.13539062 12.5625 1.13671875 C13.490625 1.13285156 14.41875 1.12898438 15.375 1.125 C16.75558594 1.13080078 16.75558594 1.13080078 18.1640625 1.13671875 C23.21760707 1.1294994 28.01964477 0.86435917 33 0 C33 1.98 33 3.96 33 6 C34.98 6 36.96 6 39 6 C40.80864343 9.84336729 41.43280993 12.75846268 41 17 C39.32749947 21.18125132 37.34607416 24.00007145 34 27 C31.525 26.01 31.525 26.01 29 25 C29 24.01 29 23.02 29 22 C28.01 22 27.02 22 26 22 C25.505 23.485 25.505 23.485 25 25 C21.8234489 26.05885037 19.40011989 26.20049266 16.0625 26.25 C15.02222656 26.27578125 13.98195313 26.3015625 12.91015625 26.328125 C9.64769496 25.96027702 8.46362442 25.06856661 6 23 C2.99611368 23.26504879 2.16695725 23.83304275 0 26 C-1.875 25.9375 -1.875 25.9375 -4 25 C-8.33875725 20.16538478 -9.33676614 17.51081195 -9 11 C-8 8.5625 -8 8.5625 -7 7 C-5.02 7 -3.04 7 -1 7 C-0.67 8.32 -0.34 9.64 0 11 C0 7.37 0 3.74 0 0 Z " fill="#FCD9B4" transform="translate(70,123)"/>
<path d="M0 0 C5.0882189 3.81616417 10.12812244 7.64466806 15.1171875 11.58203125 C16.94633095 13.0485162 16.94633095 13.0485162 19 14 C19 18.29 19 22.58 19 27 C10.09 27.99 10.09 27.99 1 29 C0.67 19.43 0.34 9.86 0 0 Z " fill="#583126" transform="translate(50,102)"/>
<path d="M0 0 C0.33 0 0.66 0 1 0 C1 39.6 1 79.2 1 120 C-3.65978186 118.83505453 -4.96886685 117.34815157 -8.25 113.9375 C-9.58804687 112.55884766 -9.58804687 112.55884766 -10.953125 111.15234375 C-11.62859375 110.44207031 -12.3040625 109.73179687 -13 109 C-12.01 108.505 -12.01 108.505 -11 108 C-10.71253906 107.2259935 -10.42507812 106.451987 -10.12890625 105.65452576 C-8.83375503 102.60908929 -7.46466865 101.6048662 -4.9375 99.52758789 C1.73768942 92.18029637 0.09384238 81.87565112 0 72.55859375 C0.00752504 70.46393836 0.01856472 68.36929291 0.03295898 66.27467346 C0.06130611 60.78510685 0.04215933 55.2967113 0.01287842 49.80718994 C-0.00856569 44.19625326 0.01524031 38.58552472 0.03515625 32.97460938 C0.06754398 21.98280918 0.04972263 10.99171415 0 0 Z " fill="#D9667D" transform="translate(33,48)"/>
<path d="M0 0 C1.32 0.33 2.64 0.66 4 1 C4 1.33 4 1.66 4 2 C9.25061496 3.72953327 13.85873295 4.35222556 19.375 4.3125 C20.49056274 4.31056641 20.49056274 4.31056641 21.62866211 4.30859375 C27.25893497 4.21017316 31.80269177 3.26791632 37 1 C37 5.29 37 9.58 37 14 C36.67 14 36.34 14 36 14 C36 12.02 36 10.04 36 8 C35.06414062 8.32484375 34.12828125 8.6496875 33.1640625 8.984375 C28.26280552 10.38050557 23.43702076 10.29253799 18.375 10.25 C16.9828125 10.26160156 16.9828125 10.26160156 15.5625 10.2734375 C14.66273437 10.27085938 13.76296875 10.26828125 12.8359375 10.265625 C12.02688965 10.26336914 11.2178418 10.26111328 10.38427734 10.25878906 C8 10 8 10 3 8 C3.33 12.62 3.66 17.24 4 22 C2 19 2 19 2 15 C0.02 15 -1.96 15 -4 15 C-4 14.67 -4 14.34 -4 14 C-2.02 14 -0.04 14 2 14 C2 9.71 2 5.42 2 1 C1.34 0.67 0.68 0.34 0 0 Z " fill="#E5C6A3" transform="translate(67,115)"/>
<path d="M0 0 C1.98 0 3.96 0 6 0 C6.70005949 2.07914664 7.38462244 4.16351586 8.0625 6.25 C8.44535156 7.41015625 8.82820313 8.5703125 9.22265625 9.765625 C9.95717557 12.82181594 10.23790973 14.17419559 9 17 C8.34 17.66 7.68 18.32 7 19 C5.125 18.9375 5.125 18.9375 3 18 C-1.33875725 13.16538478 -2.33676614 10.51081195 -2 4 C-1 1.5625 -1 1.5625 0 0 Z " fill="#F6E9E7" transform="translate(63,130)"/>
<path d="M0 0 C0.66 0 1.32 0 2 0 C2.66 0.99 3.32 1.98 4 3 C6.02887311 3.41480107 6.02887311 3.41480107 8.3515625 3.29296875 C9.62773438 3.2784668 9.62773438 3.2784668 10.9296875 3.26367188 C12.26386719 3.2259668 12.26386719 3.2259668 13.625 3.1875 C14.5221875 3.17396484 15.419375 3.16042969 16.34375 3.14648438 C18.56309789 3.11106925 20.78125188 3.06168461 23 3 C23 2.34 23 1.68 23 1 C23.66 1 24.32 1 25 1 C24.6875 4.375 24.6875 4.375 24 8 C23.01 8.66 22.02 9.32 21 10 C20.34 9.67 19.68 9.34 19 9 C16.68851505 8.92839266 14.3749941 8.91602173 12.0625 8.9375 C10.81597656 8.94652344 9.56945312 8.95554687 8.28515625 8.96484375 C7.20105469 8.97644531 6.11695312 8.98804687 5 9 C4.01 9 3.02 9 2 9 C0.25 6.75 0.25 6.75 -1 4 C-0.6875 1.6875 -0.6875 1.6875 0 0 Z " fill="#4C4137" transform="translate(74,92)"/>
<path d="M0 0 C-0.66 3.96 -1.32 7.92 -2 12 C-2.66 11.34 -3.32 10.68 -4 10 C-3.625 6.375 -3.625 6.375 -3 3 C-5.64 3.33 -8.28 3.66 -11 4 C-10.91621094 4.53882813 -10.83242188 5.07765625 -10.74609375 5.6328125 C-9.87868699 12.63794559 -10.02625377 19.52755778 -10.3125 26.5625 C-10.34722412 27.55072754 -10.38194824 28.53895508 -10.41772461 29.55712891 C-10.4616333 30.48831543 -10.50554199 31.41950195 -10.55078125 32.37890625 C-10.60745972 33.64069702 -10.60745972 33.64069702 -10.6652832 34.92797852 C-11 37 -11 37 -13 39 C-13 27.12 -13 15.24 -13 3 C-8.52426397 0.76213199 -4.97367294 0 0 0 Z " fill="#D95C5B" transform="translate(63,129)"/>
<path d="M0 0 C0.33 0 0.66 0 1 0 C1.11577412 12.18689282 1.20465481 24.37365514 1.25906086 36.56098557 C1.28517119 42.21989088 1.3205961 47.87842038 1.37719727 53.53710938 C1.43146484 58.99657136 1.46140971 64.45567154 1.47438622 69.91538239 C1.48363548 71.99986722 1.501697 74.08433193 1.52865028 76.16866302 C1.56487038 79.08521036 1.56994825 82.00025668 1.56762695 84.91699219 C1.58560333 85.78158051 1.60357971 86.64616882 1.62210083 87.53695679 C1.57131685 93.421425 1.57131685 93.421425 -1.53547668 96.56768799 C-2.34876938 97.04035095 -3.16206207 97.51301392 -4 98 C-4 96.35 -4 94.7 -4 93 C-2.02 92.01 -2.02 92.01 0 91 C0 60.97 0 30.94 0 0 Z " fill="#DF98EB" transform="translate(32,48)"/>
<path d="M0 0 C1.65 0 3.3 0 5 0 C5.8723412 2.99480917 6.10829766 5.63575911 6.0625 8.75 C6.05347656 9.54921875 6.04445313 10.3484375 6.03515625 11.171875 C6.02355469 11.77515625 6.01195313 12.3784375 6 13 C5.34 13 4.68 13 4 13 C3.34 14.32 2.68 15.64 2 17 C0.35 16.67 -1.3 16.34 -3 16 C-2.152874 10.63486869 -1.08318169 5.3212615 0 0 Z " fill="#F3F1F2" transform="translate(103,130)"/>
<path d="M0 0 C0.33 0 0.66 0 1 0 C1 30.03 1 60.06 1 91 C1.99 91 2.98 91 4 91 C4 91.99 4 92.98 4 94 C2.68 93.34 1.36 92.68 0 92 C0 61.64 0 31.28 0 0 Z " fill="#CF8FC6" transform="translate(139,50)"/>
<path d="M0 0 C5.61 0 11.22 0 17 0 C17 0.99 17 1.98 17 3 C12.47075673 5.65126436 9.24957258 6.58328584 4 6 C1.5625 4.6875 1.5625 4.6875 0 3 C0 2.01 0 1.02 0 0 Z " fill="#DBBB98" transform="translate(78,80)"/>
<path d="M0 0 C1.26972656 0.00257812 2.53945312 0.00515625 3.84765625 0.0078125 C5.11480469 0.00523438 6.38195312 0.00265625 7.6875 0 C10.91015625 0.1328125 10.91015625 0.1328125 12.91015625 1.1328125 C11.91015625 4.1328125 11.91015625 4.1328125 10.16796875 5.328125 C7.48887078 6.28295922 5.61028035 6.26924189 2.78515625 6.0078125 C1.91632813 5.94335938 1.0475 5.87890625 0.15234375 5.8125 C-2.08984375 5.1328125 -2.08984375 5.1328125 -3.39453125 3.078125 C-3.62398438 2.43617187 -3.8534375 1.79421875 -4.08984375 1.1328125 C-3.08984375 0.1328125 -3.08984375 0.1328125 0 0 Z " fill="#E45268" transform="translate(82.08984375,99.8671875)"/>
<path d="M0 0 C0 8.58 0 17.16 0 26 C-1.32 25.67 -2.64 25.34 -4 25 C-3.34 24.67 -2.68 24.34 -2 24 C-2.33 17.4 -2.66 10.8 -3 4 C-3.99 4 -4.98 4 -6 4 C-2.25 0 -2.25 0 0 0 Z " fill="#D65961" transform="translate(34,142)"/>
<path d="M0 0 C1.07765625 0.00902344 2.1553125 0.01804688 3.265625 0.02734375 C4.08546875 0.03894531 4.9053125 0.05054688 5.75 0.0625 C5.75 0.7225 5.75 1.3825 5.75 2.0625 C5.02554688 2.09988281 4.30109375 2.13726562 3.5546875 2.17578125 C-2.0737639 2.55851595 -6.33732392 3.06696581 -11.25 6.0625 C-12.58333333 6.72916667 -13.91666667 7.39583333 -15.25 8.0625 C-14.87724214 5.36000549 -14.46551151 4.26314865 -12.4375 2.375 C-8.36890857 -0.06615486 -4.6881592 -0.05095825 0 0 Z " fill="#745E41" transform="translate(70.25,50.9375)"/>
<path d="M0 0 C0.66 0 1.32 0 2 0 C2.66 2.31 3.32 4.62 4 7 C5.68029297 6.96519531 5.68029297 6.96519531 7.39453125 6.9296875 C8.86718084 6.91092763 10.33983763 6.89272766 11.8125 6.875 C12.55048828 6.85824219 13.28847656 6.84148437 14.04882812 6.82421875 C17.91246426 6.78925372 19.70903668 6.80602445 23 9 C22.01 9.495 22.01 9.495 21 10 C20.34 9.67 19.68 9.34 19 9 C16.68851505 8.92839266 14.3749941 8.91602173 12.0625 8.9375 C10.81597656 8.94652344 9.56945312 8.95554687 8.28515625 8.96484375 C7.20105469 8.97644531 6.11695312 8.98804687 5 9 C4.01 9 3.02 9 2 9 C0.25 6.75 0.25 6.75 -1 4 C-0.6875 1.6875 -0.6875 1.6875 0 0 Z " fill="#5F4134" transform="translate(74,92)"/>
<path d="M0 0 C13.14893617 -0.57446809 13.14893617 -0.57446809 18 3 C19.375 5.1875 19.375 5.1875 20 7 C15 5 15 5 12.6875 3.96875 C9.78048761 2.92087344 7.26333096 2.59734923 4.1875 2.375 C3.21167969 2.30023438 2.23585938 2.22546875 1.23046875 2.1484375 C0.49441406 2.09945312 -0.24164063 2.05046875 -1 2 C-0.67 1.34 -0.34 0.68 0 0 Z " fill="#725B40" transform="translate(97,51)"/>
<path d="M0 0 C0.66 0 1.32 0 2 0 C2.98248524 4.0527516 3.08159574 7.83861737 3 12 C3.66 11.67 4.32 11.34 5 11 C6.31223496 14.93670488 5.24296256 17.12488144 4 21 C-0.22706923 14.65939616 -0.2354184 7.41567962 0 0 Z " fill="#D39AEB" transform="translate(1,107)"/>
<path d="M0 0 C0.99 0.33 1.98 0.66 3 1 C3.33 1.99 3.66 2.98 4 4 C-2.61809577 6.46254726 -9.00439516 6.18935472 -16 6 C-16 5.34 -16 4.68 -16 4 C-15.16855469 3.93941406 -14.33710937 3.87882813 -13.48046875 3.81640625 C-12.39378906 3.73261719 -11.30710937 3.64882812 -10.1875 3.5625 C-8.56908203 3.44068359 -8.56908203 3.44068359 -6.91796875 3.31640625 C-3.94010095 3.09787539 -3.94010095 3.09787539 -1 2 C-0.67 1.34 -0.34 0.68 0 0 Z " fill="#EB7169" transform="translate(96,145)"/>
<path d="M0 0 C1.32 0.33 2.64 0.66 4 1 C-1.47205322 5.01871112 -6.61005581 8.63849889 -13 11 C-13 10.34 -13 9.68 -13 9 C-10 7 -10 7 -7 7 C-6.67 5.35 -6.34 3.7 -6 2 C-4.35 2.33 -2.7 2.66 -1 3 C-0.67 2.01 -0.34 1.02 0 0 Z " fill="#E05F61" transform="translate(136,168)"/>
<path d="M0 0 C1.65 0 3.3 0 5 0 C5 0.66 5 1.32 5 2 C4.34 2 3.68 2 3 2 C3.061875 2.9075 3.12375 3.815 3.1875 4.75 C2.98313144 8.29238832 2.47346304 9.52653696 0 12 C-0.66 12 -1.32 12 -2 12 C-1.34 8.04 -0.68 4.08 0 0 Z " fill="#F6EEE1" transform="translate(103,130)"/>
<path d="M0 0 C3.43595166 1.52708963 6.11912454 3.59927045 9 6 C8.34 6 7.68 6 7 6 C7 6.66 7 7.32 7 8 C5.02 8.33 3.04 8.66 1 9 C1.66 8.67 2.32 8.34 3 8 C1.35 6.02 -0.3 4.04 -2 2 C-1.34 2 -0.68 2 0 2 C0 1.34 0 0.68 0 0 Z " fill="#E8C6A8" transform="translate(114,50)"/>
<path d="M0 0 C0.69222656 0.06445312 1.38445312 0.12890625 2.09765625 0.1953125 C3.9375 0.875 3.9375 0.875 5.18359375 2.9296875 C5.43238281 3.57164063 5.68117188 4.21359375 5.9375 4.875 C4.94169922 4.73191406 4.94169922 4.73191406 3.92578125 4.5859375 C-2.77895525 3.67184678 -2.77895525 3.67184678 -9.0625 5.875 C-7.12490549 1.40362805 -4.98855823 -0.57811329 0 0 Z " fill="#7E644A" transform="translate(108.0625,63.125)"/>
<path d="M0 0 C-2.97 4.95 -2.97 4.95 -6 10 C-6.99 9.67 -7.98 9.34 -9 9 C-8.34 9 -7.68 9 -7 9 C-6.67 6.69 -6.34 4.38 -6 2 C-6.66 2 -7.32 2 -8 2 C-8 1.34 -8 0.68 -8 0 C-5.13822943 -1.43088528 -3.06624227 -0.59991697 0 0 Z " fill="#E593E7" transform="translate(28,146)"/>
<path d="M0 0 C1.65 0.33 3.3 0.66 5 1 C5 1.66 5 2.32 5 3 C4.34 3 3.68 3 3 3 C3.061875 4.8253125 3.061875 4.8253125 3.125 6.6875 C3.10766591 11.60171522 2.26022927 14.62857403 -1.125 18.3125 C-1.74375 18.869375 -2.3625 19.42625 -3 20 C-3.66 19.67 -4.32 19.34 -5 19 C-4.38125 18.443125 -3.7625 17.88625 -3.125 17.3125 C-0.16901556 14.0956934 1.07921208 11.90989125 0.89453125 7.45703125 C0.65155881 4.96040137 0.35674033 2.48271989 0 0 Z " fill="#EC6D6F" transform="translate(109,130)"/>
<path d="M0 0 C3.375 0.9375 3.375 0.9375 6.375 2.9375 C6.375 3.5975 6.375 4.2575 6.375 4.9375 C5.859375 4.7725 5.34375 4.6075 4.8125 4.4375 C0.29791602 3.51143149 -4.21863721 3.52746391 -8.625 4.9375 C-4.58725633 -0.07909063 -4.58725633 -0.07909063 0 0 Z " fill="#70593F" transform="translate(66.625,63.0625)"/>
<path d="M0 0 C1.65 0 3.3 0 5 0 C5.70005949 2.07914664 6.38462244 4.16351586 7.0625 6.25 C7.44535156 7.41015625 7.82820313 8.5703125 8.22265625 9.765625 C8.95211763 12.80077085 9.11889082 14.15703213 8 17 C5.24072656 14.24072656 5.48216757 11.78845948 5 8 C4.67 7.67 4.34 7.34 4 7 C3.95936168 5.33382885 3.957279 3.66611905 4 2 C2.68 2 1.36 2 0 2 C0 1.34 0 0.68 0 0 Z " fill="#F6EADF" transform="translate(64,130)"/>
<path d="M0 0 C0.66 0.66 1.32 1.32 2 2 C4.44012949 2.24287489 4.44012949 2.24287489 7.125 2.125 C8.03507812 2.10695313 8.94515625 2.08890625 9.8828125 2.0703125 C10.58148438 2.04710938 11.28015625 2.02390625 12 2 C12 1.34 12 0.68 12 0 C12.99 0 13.98 0 15 0 C14 3 14 3 12.265625 4.2109375 C9.50685268 5.17175131 7.63446898 5.00453539 4.75 4.625 C3.85796875 4.51414062 2.9659375 4.40328125 2.046875 4.2890625 C1.03367187 4.14597656 1.03367187 4.14597656 0 4 C0 2.68 0 1.36 0 0 Z " fill="#EA656D" transform="translate(80,101)"/>
<path d="M0 0 C1 2 1 2 0.4765625 3.953125 C0.05503906 5.09007812 0.05503906 5.09007812 -0.375 6.25 C-1.6402194 9.82612241 -2.51571387 13.22256819 -3 17 C-3.33 17 -3.66 17 -4 17 C-3.97679687 16.22914062 -3.95359375 15.45828125 -3.9296875 14.6640625 C-3.91164062 13.66117188 -3.89359375 12.65828125 -3.875 11.625 C-3.85179687 10.62726562 -3.82859375 9.62953125 -3.8046875 8.6015625 C-3.72783152 5.83737827 -3.72783152 5.83737827 -6 4 C-4.02 2.68 -2.04 1.36 0 0 Z " fill="#CF94D7" transform="translate(37,31)"/>
<path d="M0 0 C0.33 0 0.66 0 1 0 C0.48914188 6.43681228 -0.72942897 11.95942424 -3 18 C-4.25799297 14.2260211 -3.56030048 12.27738041 -2.625 8.4375 C-2.34914062 7.28121094 -2.07328125 6.12492187 -1.7890625 4.93359375 C-1 2 -1 2 0 0 Z " fill="#D39BE8" transform="translate(170,114)"/>
<path d="M0 0 C0.33 0.66 0.66 1.32 1 2 C4.02934491 2.65772428 4.02934491 2.65772428 7 3 C7 3.33 7 3.66 7 4 C4.71059044 4.38854209 2.41835426 4.7604628 0.125 5.125 C-1.78925781 5.43824219 -1.78925781 5.43824219 -3.7421875 5.7578125 C-5.35480469 5.87769531 -5.35480469 5.87769531 -7 6 C-7.66 5.34 -8.32 4.68 -9 4 C-6.03 2.68 -3.06 1.36 0 0 Z " fill="#D9BB9E" transform="translate(66,47)"/>
<path d="M0 0 C1.010625 0.721875 2.02125 1.44375 3.0625 2.1875 C5.3488006 3.52661892 6.39275507 4.12074561 9.0234375 3.59765625 C11.17209703 2.68505443 11.17209703 2.68505443 14 1 C14.33 1.66 14.66 2.32 15 3 C13.02 3.33 11.04 3.66 9 4 C9 4.66 9 5.32 9 6 C6.36 5.67 3.72 5.34 1 5 C0.67 3.35 0.34 1.7 0 0 Z " fill="#E47875" transform="translate(63,145)"/>
<path d="M0 0 C0.33 0 0.66 0 1 0 C1.08126087 2.08268593 1.13930839 4.16628658 1.1875 6.25 C1.22230469 7.41015625 1.25710937 8.5703125 1.29296875 9.765625 C0.97982934 13.22268407 0.34290892 14.51565563 -2 17 C-2.625 14.125 -2.625 14.125 -3 11 C-2.34 10.34 -1.68 9.68 -1 9 C-0.53993654 6.79749008 -0.53993654 6.79749008 -0.375 4.375 C-0.30023438 3.55773437 -0.22546875 2.74046875 -0.1484375 1.8984375 C-0.09945312 1.27195312 -0.05046875 0.64546875 0 0 Z " fill="#D9B89A" transform="translate(133,64)"/>
<path d="M0 0 C2.3125 0.1875 2.3125 0.1875 4 1 C2.515 3.475 2.515 3.475 1 6 C-1.97 5.505 -1.97 5.505 -5 5 C-2.75 2.4375 -2.75 2.4375 0 0 Z " fill="#F2D3B0" transform="translate(62,54)"/>
<path d="M0 0 C1.0625 1.8125 1.0625 1.8125 2 4 C1.67 4.99 1.34 5.98 1 7 C0.01 6.67 -0.98 6.34 -2 6 C-2.66 7.65 -3.32 9.3 -4 11 C-4.99 10.67 -5.98 10.34 -7 10 C-6.34 9.67 -5.68 9.34 -5 9 C-4.32558869 7.3364521 -3.6599679 5.66933058 -3 4 C-2.04175747 2.63634717 -1.05278825 1.29205831 0 0 Z " fill="#ED6476" transform="translate(27,147)"/>
<path d="M0 0 C0.66 0 1.32 0 2 0 C2 4.29 2 8.58 2 13 C1.67 13 1.34 13 1 13 C1 11.02 1 9.04 1 7 C0.34 7 -0.32 7 -1 7 C-1.625 4.625 -1.625 4.625 -2 2 C-1.34 1.34 -0.68 0.68 0 0 Z " fill="#CAAA8E" transform="translate(102,116)"/>
<path d="M0 0 C1.65 0.99 3.3 1.98 5 3 C4.835 3.515625 4.67 4.03125 4.5 4.5625 C3.84951 7.73363876 3.9379266 10.77218334 4 14 C2.30566082 10.9530371 1.50532888 8.17178534 0.875 4.75 C0.70742187 3.85796875 0.53984375 2.9659375 0.3671875 2.046875 C0.18542969 1.03367188 0.18542969 1.03367188 0 0 Z " fill="#D095D6" transform="translate(135,31)"/>
<path d="M0 0 C4.50884026 2.31883213 6.93906776 5.06451569 10 9 C9.67 9.66 9.34 10.32 9 11 C7.125 10.3125 7.125 10.3125 5 9 C4.31246699 7.34183216 3.64438717 5.67540664 3 4 C2.01 3.67 1.02 3.34 0 3 C0 2.01 0 1.02 0 0 Z " fill="#F16479" transform="translate(139,142)"/>
<path d="M0 0 C2.25 0.25 2.25 0.25 4 1 C3.67 2.32 3.34 3.64 3 5 C3 4.34 3 3.68 3 3 C2.01 3.66 1.02 4.32 0 5 C-2.1875 4.625 -2.1875 4.625 -4 4 C-2.25 1.9375 -2.25 1.9375 0 0 Z " fill="#D596F0" transform="translate(30,36)"/>
<path d="M0 0 C0.66 0 1.32 0 2 0 C0.7251791 2.84383123 -0.45137078 5.13754018 -3 7 C-5.1875 6.6875 -5.1875 6.6875 -7 6 C-6.67 5.01 -6.34 4.02 -6 3 C-5.195625 2.87625 -4.39125 2.7525 -3.5625 2.625 C-2.716875 2.41875 -1.87125 2.2125 -1 2 C-0.67 1.34 -0.34 0.68 0 0 Z " fill="#FDDFD7" transform="translate(107,143)"/>
<path d="M0 0 C0.99 0.33 1.98 0.66 3 1 C2.525625 1.886875 2.05125 2.77375 1.5625 3.6875 C0.20262851 6.57042756 -0.54060386 8.87610623 -1 12 C-1.66 12 -2.32 12 -3 12 C-2.01 8.04 -1.02 4.08 0 0 Z " fill="#773E47" transform="translate(38,30)"/>
<path d="M0 0 C0.94875 0.04125 1.8975 0.0825 2.875 0.125 C3.205 0.785 3.535 1.445 3.875 2.125 C0.79882812 2.41796875 0.79882812 2.41796875 -2.27734375 2.7109375 C-2.88707031 2.84757812 -3.49679688 2.98421875 -4.125 3.125 C-4.455 3.785 -4.785 4.445 -5.125 5.125 C-5.125 0.85616396 -4.22482433 0.16899297 0 0 Z " fill="#EDD3B3" transform="translate(107.125,65.875)"/>
<path d="M0 0 C-0.66 2.97 -1.32 5.94 -2 9 C-2.66 8.67 -3.32 8.34 -4 8 C-3.67 6.35 -3.34 4.7 -3 3 C-4.32 2.67 -5.64 2.34 -7 2 C-4.35261084 0.5393715 -3.10551666 0 0 0 Z " fill="#D6BEA1" transform="translate(102,90)"/>
<path d="M0 0 C1.670625 0.061875 1.670625 0.061875 3.375 0.125 C2.385 1.61 2.385 1.61 1.375 3.125 C-0.935 2.795 -3.245 2.465 -5.625 2.125 C-3.625 0.125 -3.625 0.125 0 0 Z " fill="#E3CAAC" transform="translate(65.625,65.875)"/>
<path d="M0 0 C6.625 0.75 6.625 0.75 10 3 C10 3.66 10 4.32 10 5 C5 3 5 3 0 1 C0 0.67 0 0.34 0 0 Z " fill="#866B4E" transform="translate(63,63)"/>
<path d="M0 0 C1.98 0 3.96 0 6 0 C3.94766315 2.2477975 2.99332739 3.0022242 0 4 C-0.66 3.34 -1.32 2.68 -2 2 C-1.34 2 -0.68 2 0 2 C0 1.34 0 0.68 0 0 Z " fill="#6A433B" transform="translate(74,1)"/>
</svg>
